<mxfile host="app.diagrams.net" agent="Mozilla/5.0 (Windows NT 10.0; Win64; x64) AppleWebKit/537.36 (KHTML, like Gecko) Chrome/132.0.0.0 Safari/537.36 OPR/117.0.0.0" version="26.1.1">
  <diagram id="C5RBs43oDa-KdzZeNtuy" name="Page-1">
    <mxGraphModel dx="3074" dy="2182" grid="1" gridSize="10" guides="1" tooltips="1" connect="1" arrows="1" fold="1" page="1" pageScale="1" pageWidth="827" pageHeight="1169" math="0" shadow="0">
      <root>
        <mxCell id="WIyWlLk6GJQsqaUBKTNV-0" />
        <mxCell id="WIyWlLk6GJQsqaUBKTNV-1" parent="WIyWlLk6GJQsqaUBKTNV-0" />
        <mxCell id="zkfFHV4jXpPFQw0GAbJ--0" value="Users" style="swimlane;fontStyle=2;align=center;verticalAlign=top;childLayout=stackLayout;horizontal=1;startSize=26;horizontalStack=0;resizeParent=1;resizeLast=0;collapsible=1;marginBottom=0;rounded=0;shadow=0;strokeWidth=1;" parent="WIyWlLk6GJQsqaUBKTNV-1" vertex="1">
          <mxGeometry x="40" y="-92" width="270" height="742" as="geometry">
            <mxRectangle x="230" y="140" width="160" height="26" as="alternateBounds" />
          </mxGeometry>
        </mxCell>
        <mxCell id="LIrFVqC6FrregrjLPzAZ-3" value="Id_users int PK&#xa;" style="text;align=left;verticalAlign=top;spacingLeft=4;spacingRight=4;overflow=hidden;rotatable=0;points=[[0,0.5],[1,0.5]];portConstraint=eastwest;" parent="zkfFHV4jXpPFQw0GAbJ--0" vertex="1">
          <mxGeometry y="26" width="270" height="26" as="geometry" />
        </mxCell>
        <mxCell id="zkfFHV4jXpPFQw0GAbJ--1" value="Role string&#xa;&#xa;" style="text;align=left;verticalAlign=top;spacingLeft=4;spacingRight=4;overflow=hidden;rotatable=0;points=[[0,0.5],[1,0.5]];portConstraint=eastwest;" parent="zkfFHV4jXpPFQw0GAbJ--0" vertex="1">
          <mxGeometry y="52" width="270" height="26" as="geometry" />
        </mxCell>
        <mxCell id="zkfFHV4jXpPFQw0GAbJ--2" value="age Int" style="text;align=left;verticalAlign=top;spacingLeft=4;spacingRight=4;overflow=hidden;rotatable=0;points=[[0,0.5],[1,0.5]];portConstraint=eastwest;rounded=0;shadow=0;html=0;" parent="zkfFHV4jXpPFQw0GAbJ--0" vertex="1">
          <mxGeometry y="78" width="270" height="26" as="geometry" />
        </mxCell>
        <mxCell id="zkfFHV4jXpPFQw0GAbJ--3" value="Nom string" style="text;align=left;verticalAlign=top;spacingLeft=4;spacingRight=4;overflow=hidden;rotatable=0;points=[[0,0.5],[1,0.5]];portConstraint=eastwest;rounded=0;shadow=0;html=0;" parent="zkfFHV4jXpPFQw0GAbJ--0" vertex="1">
          <mxGeometry y="104" width="270" height="26" as="geometry" />
        </mxCell>
        <mxCell id="zkfFHV4jXpPFQw0GAbJ--5" value="Prenom string" style="text;align=left;verticalAlign=top;spacingLeft=4;spacingRight=4;overflow=hidden;rotatable=0;points=[[0,0.5],[1,0.5]];portConstraint=eastwest;" parent="zkfFHV4jXpPFQw0GAbJ--0" vertex="1">
          <mxGeometry y="130" width="270" height="26" as="geometry" />
        </mxCell>
        <mxCell id="1XZv7HSyNnlQdb31LOB--0" value="Mail string" style="text;align=left;verticalAlign=top;spacingLeft=4;spacingRight=4;overflow=hidden;rotatable=0;points=[[0,0.5],[1,0.5]];portConstraint=eastwest;" parent="zkfFHV4jXpPFQw0GAbJ--0" vertex="1">
          <mxGeometry y="156" width="270" height="26" as="geometry" />
        </mxCell>
        <mxCell id="1XZv7HSyNnlQdb31LOB--1" value="Mot de passe string" style="text;align=left;verticalAlign=top;spacingLeft=4;spacingRight=4;overflow=hidden;rotatable=0;points=[[0,0.5],[1,0.5]];portConstraint=eastwest;" parent="zkfFHV4jXpPFQw0GAbJ--0" vertex="1">
          <mxGeometry y="182" width="270" height="26" as="geometry" />
        </mxCell>
        <mxCell id="1XZv7HSyNnlQdb31LOB--2" value="Telephone string" style="text;align=left;verticalAlign=top;spacingLeft=4;spacingRight=4;overflow=hidden;rotatable=0;points=[[0,0.5],[1,0.5]];portConstraint=eastwest;" parent="zkfFHV4jXpPFQw0GAbJ--0" vertex="1">
          <mxGeometry y="208" width="270" height="26" as="geometry" />
        </mxCell>
        <mxCell id="1XZv7HSyNnlQdb31LOB--3" value="Localisation String" style="text;align=left;verticalAlign=top;spacingLeft=4;spacingRight=4;overflow=hidden;rotatable=0;points=[[0,0.5],[1,0.5]];portConstraint=eastwest;" parent="zkfFHV4jXpPFQw0GAbJ--0" vertex="1">
          <mxGeometry y="234" width="270" height="26" as="geometry" />
        </mxCell>
        <mxCell id="LIrFVqC6FrregrjLPzAZ-22" value="Created_at date" style="text;align=left;verticalAlign=top;spacingLeft=4;spacingRight=4;overflow=hidden;rotatable=0;points=[[0,0.5],[1,0.5]];portConstraint=eastwest;" parent="zkfFHV4jXpPFQw0GAbJ--0" vertex="1">
          <mxGeometry y="260" width="270" height="26" as="geometry" />
        </mxCell>
        <mxCell id="LIrFVqC6FrregrjLPzAZ-23" value="Updated_at date" style="text;align=left;verticalAlign=top;spacingLeft=4;spacingRight=4;overflow=hidden;rotatable=0;points=[[0,0.5],[1,0.5]];portConstraint=eastwest;" parent="zkfFHV4jXpPFQw0GAbJ--0" vertex="1">
          <mxGeometry y="286" width="270" height="26" as="geometry" />
        </mxCell>
        <mxCell id="LIrFVqC6FrregrjLPzAZ-4" value="Id_salon int Fk" style="text;align=left;verticalAlign=top;spacingLeft=4;spacingRight=4;overflow=hidden;rotatable=0;points=[[0,0.5],[1,0.5]];portConstraint=eastwest;" parent="zkfFHV4jXpPFQw0GAbJ--0" vertex="1">
          <mxGeometry y="312" width="270" height="26" as="geometry" />
        </mxCell>
        <mxCell id="LIrFVqC6FrregrjLPzAZ-5" value="id_politiqueC int Fk" style="text;align=left;verticalAlign=top;spacingLeft=4;spacingRight=4;overflow=hidden;rotatable=0;points=[[0,0.5],[1,0.5]];portConstraint=eastwest;" parent="zkfFHV4jXpPFQw0GAbJ--0" vertex="1">
          <mxGeometry y="338" width="270" height="26" as="geometry" />
        </mxCell>
        <mxCell id="LIrFVqC6FrregrjLPzAZ-6" value="Id_cookies int FK" style="text;align=left;verticalAlign=top;spacingLeft=4;spacingRight=4;overflow=hidden;rotatable=0;points=[[0,0.5],[1,0.5]];portConstraint=eastwest;" parent="zkfFHV4jXpPFQw0GAbJ--0" vertex="1">
          <mxGeometry y="364" width="270" height="26" as="geometry" />
        </mxCell>
        <mxCell id="zkfFHV4jXpPFQw0GAbJ--4" value="" style="line;html=1;strokeWidth=1;align=left;verticalAlign=middle;spacingTop=-1;spacingLeft=3;spacingRight=3;rotatable=0;labelPosition=right;points=[];portConstraint=eastwest;" parent="zkfFHV4jXpPFQw0GAbJ--0" vertex="1">
          <mxGeometry y="390" width="270" height="8" as="geometry" />
        </mxCell>
        <mxCell id="1XZv7HSyNnlQdb31LOB--4" value="- GET /user (Admin, User) &#xa;- GET /mailUser (Admin, User) &#xa;- GET /firstNameUser (Admin, User) &#xa;- GET /lastnameUser (Admin, User) &#xa;- GET /ageUser (Admin, User) &#xa;- GET /phoneUser (Admin, User) &#xa;- GET /hairdresserPerSalon(Public, Admin, User) &#xa; &#xa; &#xa;- POST /createUser (Public) &#xa;- POST /createHairdresserInSalon (Admin) &#xa; &#xa;- PUT /updateUser(Admin, User) &#xa; &#xa;- PATCH /updateRoleUser (Admin) &#xa;- PATCH /updateAgeUser (Admin, User) &#xa;- PATCH /updateFirstNameUser (Admin, User) &#xa;- PATCH /updateLastNameUser (Admin, User) &#xa;- PATCH /updateMailUser (Admin, User) &#xa;- PATCH /updatePasswordUser (Admin, User) &#xa;- PATCH /updatePhoneUser(Admin, User) &#xa;- PATCH /updateLocalisationUser (Admin, User) &#xa; &#xa;- DEL /deleteUser(Admin, User) " style="text;align=left;verticalAlign=top;spacingLeft=4;spacingRight=4;overflow=hidden;rotatable=0;points=[[0,0.5],[1,0.5]];portConstraint=eastwest;" parent="zkfFHV4jXpPFQw0GAbJ--0" vertex="1">
          <mxGeometry y="398" width="270" height="344" as="geometry" />
        </mxCell>
        <mxCell id="zkfFHV4jXpPFQw0GAbJ--17" value="Salon" style="swimlane;fontStyle=0;align=center;verticalAlign=top;childLayout=stackLayout;horizontal=1;startSize=26;horizontalStack=0;resizeParent=1;resizeLast=0;collapsible=1;marginBottom=0;rounded=0;shadow=0;strokeWidth=1;" parent="WIyWlLk6GJQsqaUBKTNV-1" vertex="1">
          <mxGeometry x="535" y="-140" width="370" height="664" as="geometry">
            <mxRectangle x="550" y="140" width="160" height="26" as="alternateBounds" />
          </mxGeometry>
        </mxCell>
        <mxCell id="LIrFVqC6FrregrjLPzAZ-31" value="Id_salon int PK" style="text;align=left;verticalAlign=top;spacingLeft=4;spacingRight=4;overflow=hidden;rotatable=0;points=[[0,0.5],[1,0.5]];portConstraint=eastwest;" parent="zkfFHV4jXpPFQw0GAbJ--17" vertex="1">
          <mxGeometry y="26" width="370" height="26" as="geometry" />
        </mxCell>
        <mxCell id="zkfFHV4jXpPFQw0GAbJ--18" value="Nom string" style="text;align=left;verticalAlign=top;spacingLeft=4;spacingRight=4;overflow=hidden;rotatable=0;points=[[0,0.5],[1,0.5]];portConstraint=eastwest;" parent="zkfFHV4jXpPFQw0GAbJ--17" vertex="1">
          <mxGeometry y="52" width="370" height="26" as="geometry" />
        </mxCell>
        <mxCell id="zkfFHV4jXpPFQw0GAbJ--19" value="Adresse string" style="text;align=left;verticalAlign=top;spacingLeft=4;spacingRight=4;overflow=hidden;rotatable=0;points=[[0,0.5],[1,0.5]];portConstraint=eastwest;rounded=0;shadow=0;html=0;" parent="zkfFHV4jXpPFQw0GAbJ--17" vertex="1">
          <mxGeometry y="78" width="370" height="26" as="geometry" />
        </mxCell>
        <mxCell id="zkfFHV4jXpPFQw0GAbJ--20" value="ZIP int" style="text;align=left;verticalAlign=top;spacingLeft=4;spacingRight=4;overflow=hidden;rotatable=0;points=[[0,0.5],[1,0.5]];portConstraint=eastwest;rounded=0;shadow=0;html=0;" parent="zkfFHV4jXpPFQw0GAbJ--17" vertex="1">
          <mxGeometry y="104" width="370" height="26" as="geometry" />
        </mxCell>
        <mxCell id="zkfFHV4jXpPFQw0GAbJ--21" value="photos string" style="text;align=left;verticalAlign=top;spacingLeft=4;spacingRight=4;overflow=hidden;rotatable=0;points=[[0,0.5],[1,0.5]];portConstraint=eastwest;rounded=0;shadow=0;html=0;" parent="zkfFHV4jXpPFQw0GAbJ--17" vertex="1">
          <mxGeometry y="130" width="370" height="26" as="geometry" />
        </mxCell>
        <mxCell id="zkfFHV4jXpPFQw0GAbJ--22" value="Date date" style="text;align=left;verticalAlign=top;spacingLeft=4;spacingRight=4;overflow=hidden;rotatable=0;points=[[0,0.5],[1,0.5]];portConstraint=eastwest;rounded=0;shadow=0;html=0;" parent="zkfFHV4jXpPFQw0GAbJ--17" vertex="1">
          <mxGeometry y="156" width="370" height="26" as="geometry" />
        </mxCell>
        <mxCell id="zkfFHV4jXpPFQw0GAbJ--24" value="Description string" style="text;align=left;verticalAlign=top;spacingLeft=4;spacingRight=4;overflow=hidden;rotatable=0;points=[[0,0.5],[1,0.5]];portConstraint=eastwest;" parent="zkfFHV4jXpPFQw0GAbJ--17" vertex="1">
          <mxGeometry y="182" width="370" height="26" as="geometry" />
        </mxCell>
        <mxCell id="LIrFVqC6FrregrjLPzAZ-29" value="Created_at date" style="text;align=left;verticalAlign=top;spacingLeft=4;spacingRight=4;overflow=hidden;rotatable=0;points=[[0,0.5],[1,0.5]];portConstraint=eastwest;" parent="zkfFHV4jXpPFQw0GAbJ--17" vertex="1">
          <mxGeometry y="208" width="370" height="26" as="geometry" />
        </mxCell>
        <mxCell id="LIrFVqC6FrregrjLPzAZ-30" value="Updated_at date" style="text;align=left;verticalAlign=top;spacingLeft=4;spacingRight=4;overflow=hidden;rotatable=0;points=[[0,0.5],[1,0.5]];portConstraint=eastwest;" parent="zkfFHV4jXpPFQw0GAbJ--17" vertex="1">
          <mxGeometry y="234" width="370" height="26" as="geometry" />
        </mxCell>
        <mxCell id="LIrFVqC6FrregrjLPzAZ-32" value="Id_categorie int FK" style="text;align=left;verticalAlign=top;spacingLeft=4;spacingRight=4;overflow=hidden;rotatable=0;points=[[0,0.5],[1,0.5]];portConstraint=eastwest;" parent="zkfFHV4jXpPFQw0GAbJ--17" vertex="1">
          <mxGeometry y="260" width="370" height="26" as="geometry" />
        </mxCell>
        <mxCell id="zkfFHV4jXpPFQw0GAbJ--23" value="" style="line;html=1;strokeWidth=1;align=left;verticalAlign=middle;spacingTop=-1;spacingLeft=3;spacingRight=3;rotatable=0;labelPosition=right;points=[];portConstraint=eastwest;" parent="zkfFHV4jXpPFQw0GAbJ--17" vertex="1">
          <mxGeometry y="286" width="370" height="8" as="geometry" />
        </mxCell>
        <mxCell id="zkfFHV4jXpPFQw0GAbJ--25" value="- GET /nameSalon (Public, Admin, User) &#xa;- GET /descriptionSalon (Public, Admin, User) &#xa;- GET /adressSalon (Public, Admin, User) &#xa;- GET /zipSalon (Public, Admin, User) &#xa;- GET /pictureSalon (Public, Admin, User) &#xa;- GET /reviewSalon (Public, Admin, User) &#xa;- GET /allSalon(Public, Admin, User) &#xa;- GET /allSalonByLocalisation(Public, Admin, User) &#xa;- GET /hairdresserSalon(Public, Admin, User) &#xa;- GET /salonByCategories(Public, Admin, User) &#xa;- GET /salonByCategoriesByLocalisation(Public, Admin, User) &#xa; &#xa;- POST /createSalon(Admin, Salon Owner) &#xa; &#xa;- PUT /updateSalon(Admin, Salon Owner) &#xa; &#xa;- PATCH /updateNameSalon(Admin, Salon Owner) &#xa;- PATCH /updateAdressSalon(Admin, Salon Owner) &#xa;- PATCH /updateZipSalon(Admin, Salon Owner) &#xa;- PATCH /updatePictureSalon(Admin, Salon Owner) &#xa;- PATCH /updateDescriptionSalon(Admin, Salon Owner) &#xa; &#xa;- DEL /deletePictureSalon(Admin, Salon Owner) &#xa;- DEL /deleteDescriptionSalon(Admin, Salon Owner) &#xa;- DEL /deleteSalon(Admin, Salon Owner) " style="text;align=left;verticalAlign=top;spacingLeft=4;spacingRight=4;overflow=hidden;rotatable=0;points=[[0,0.5],[1,0.5]];portConstraint=eastwest;" parent="zkfFHV4jXpPFQw0GAbJ--17" vertex="1">
          <mxGeometry y="294" width="370" height="370" as="geometry" />
        </mxCell>
        <mxCell id="1XZv7HSyNnlQdb31LOB--11" value="Prestation" style="swimlane;fontStyle=0;align=center;verticalAlign=top;childLayout=stackLayout;horizontal=1;startSize=26;horizontalStack=0;resizeParent=1;resizeLast=0;collapsible=1;marginBottom=0;rounded=0;shadow=0;strokeWidth=1;" parent="WIyWlLk6GJQsqaUBKTNV-1" vertex="1">
          <mxGeometry x="1120" y="256" width="460" height="484" as="geometry">
            <mxRectangle x="550" y="140" width="160" height="26" as="alternateBounds" />
          </mxGeometry>
        </mxCell>
        <mxCell id="LIrFVqC6FrregrjLPzAZ-46" value="Id_prestation int PK" style="text;align=left;verticalAlign=top;spacingLeft=4;spacingRight=4;overflow=hidden;rotatable=0;points=[[0,0.5],[1,0.5]];portConstraint=eastwest;" parent="1XZv7HSyNnlQdb31LOB--11" vertex="1">
          <mxGeometry y="26" width="460" height="26" as="geometry" />
        </mxCell>
        <mxCell id="1XZv7HSyNnlQdb31LOB--12" value="Prix decimal" style="text;align=left;verticalAlign=top;spacingLeft=4;spacingRight=4;overflow=hidden;rotatable=0;points=[[0,0.5],[1,0.5]];portConstraint=eastwest;" parent="1XZv7HSyNnlQdb31LOB--11" vertex="1">
          <mxGeometry y="52" width="460" height="26" as="geometry" />
        </mxCell>
        <mxCell id="1XZv7HSyNnlQdb31LOB--13" value="durée int" style="text;align=left;verticalAlign=top;spacingLeft=4;spacingRight=4;overflow=hidden;rotatable=0;points=[[0,0.5],[1,0.5]];portConstraint=eastwest;rounded=0;shadow=0;html=0;" parent="1XZv7HSyNnlQdb31LOB--11" vertex="1">
          <mxGeometry y="78" width="460" height="26" as="geometry" />
        </mxCell>
        <mxCell id="1XZv7HSyNnlQdb31LOB--14" value="description string" style="text;align=left;verticalAlign=top;spacingLeft=4;spacingRight=4;overflow=hidden;rotatable=0;points=[[0,0.5],[1,0.5]];portConstraint=eastwest;rounded=0;shadow=0;html=0;" parent="1XZv7HSyNnlQdb31LOB--11" vertex="1">
          <mxGeometry y="104" width="460" height="26" as="geometry" />
        </mxCell>
        <mxCell id="LIrFVqC6FrregrjLPzAZ-37" value="Created_at date" style="text;align=left;verticalAlign=top;spacingLeft=4;spacingRight=4;overflow=hidden;rotatable=0;points=[[0,0.5],[1,0.5]];portConstraint=eastwest;" parent="1XZv7HSyNnlQdb31LOB--11" vertex="1">
          <mxGeometry y="130" width="460" height="26" as="geometry" />
        </mxCell>
        <mxCell id="LIrFVqC6FrregrjLPzAZ-38" value="Updated_at date" style="text;align=left;verticalAlign=top;spacingLeft=4;spacingRight=4;overflow=hidden;rotatable=0;points=[[0,0.5],[1,0.5]];portConstraint=eastwest;" parent="1XZv7HSyNnlQdb31LOB--11" vertex="1">
          <mxGeometry y="156" width="460" height="26" as="geometry" />
        </mxCell>
        <mxCell id="LIrFVqC6FrregrjLPzAZ-47" value="Id_salon int FK" style="text;align=left;verticalAlign=top;spacingLeft=4;spacingRight=4;overflow=hidden;rotatable=0;points=[[0,0.5],[1,0.5]];portConstraint=eastwest;" parent="1XZv7HSyNnlQdb31LOB--11" vertex="1">
          <mxGeometry y="182" width="460" height="26" as="geometry" />
        </mxCell>
        <mxCell id="1XZv7HSyNnlQdb31LOB--18" value="" style="line;html=1;strokeWidth=1;align=left;verticalAlign=middle;spacingTop=-1;spacingLeft=3;spacingRight=3;rotatable=0;labelPosition=right;points=[];portConstraint=eastwest;" parent="1XZv7HSyNnlQdb31LOB--11" vertex="1">
          <mxGeometry y="208" width="460" height="8" as="geometry" />
        </mxCell>
        <mxCell id="1XZv7HSyNnlQdb31LOB--20" value="- GET /service (Public, Admin, User) &#xa;- GET /servicePrice(Public, Admin, User) &#xa;- GET /serviceDuration(Public, Admin, User) &#xa;- GET /serviceDescription(Public, Admin, User) &#xa;- GET /allServicesPerSalon(Public, Admin, User) &#xa;- GET /allServicesPerSalonByIncreasingPrice(Public, Admin, User) &#xa;- GET /allServicesPerSalonByDecreasingPrice(Public, Admin, User) &#xa; &#xa;- POST /createService(Admin, Salon Owner) &#xa; &#xa;- PUT /updateService (Admin, Salon Owner)  &#xa; &#xa;- DEL /deleteService(Admin, Salon Owner) " style="text;align=left;verticalAlign=top;spacingLeft=4;spacingRight=4;overflow=hidden;rotatable=0;points=[[0,0.5],[1,0.5]];portConstraint=eastwest;" parent="1XZv7HSyNnlQdb31LOB--11" vertex="1">
          <mxGeometry y="216" width="460" height="268" as="geometry" />
        </mxCell>
        <mxCell id="1XZv7HSyNnlQdb31LOB--21" value="Rendez-vous" style="swimlane;fontStyle=0;align=center;verticalAlign=top;childLayout=stackLayout;horizontal=1;startSize=26;horizontalStack=0;resizeParent=1;resizeLast=0;collapsible=1;marginBottom=0;rounded=0;shadow=0;strokeWidth=1;" parent="WIyWlLk6GJQsqaUBKTNV-1" vertex="1">
          <mxGeometry x="40" y="-790" width="450" height="610" as="geometry">
            <mxRectangle x="550" y="140" width="160" height="26" as="alternateBounds" />
          </mxGeometry>
        </mxCell>
        <mxCell id="1XZv7HSyNnlQdb31LOB--22" value="Id_rdv int PK&#xa;&#xa;Date date&#xa;" style="text;align=left;verticalAlign=top;spacingLeft=4;spacingRight=4;overflow=hidden;rotatable=0;points=[[0,0.5],[1,0.5]];portConstraint=eastwest;" parent="1XZv7HSyNnlQdb31LOB--21" vertex="1">
          <mxGeometry y="26" width="450" height="54" as="geometry" />
        </mxCell>
        <mxCell id="LIrFVqC6FrregrjLPzAZ-25" value="Updated_at date" style="text;align=left;verticalAlign=top;spacingLeft=4;spacingRight=4;overflow=hidden;rotatable=0;points=[[0,0.5],[1,0.5]];portConstraint=eastwest;" parent="1XZv7HSyNnlQdb31LOB--21" vertex="1">
          <mxGeometry y="80" width="450" height="26" as="geometry" />
        </mxCell>
        <mxCell id="LIrFVqC6FrregrjLPzAZ-24" value="Created_at date" style="text;align=left;verticalAlign=top;spacingLeft=4;spacingRight=4;overflow=hidden;rotatable=0;points=[[0,0.5],[1,0.5]];portConstraint=eastwest;" parent="1XZv7HSyNnlQdb31LOB--21" vertex="1">
          <mxGeometry y="106" width="450" height="26" as="geometry" />
        </mxCell>
        <mxCell id="LIrFVqC6FrregrjLPzAZ-26" value="Id_user int FK" style="text;align=left;verticalAlign=top;spacingLeft=4;spacingRight=4;overflow=hidden;rotatable=0;points=[[0,0.5],[1,0.5]];portConstraint=eastwest;" parent="1XZv7HSyNnlQdb31LOB--21" vertex="1">
          <mxGeometry y="132" width="450" height="28" as="geometry" />
        </mxCell>
        <mxCell id="1XZv7HSyNnlQdb31LOB--28" value="" style="line;html=1;strokeWidth=1;align=left;verticalAlign=middle;spacingTop=-1;spacingLeft=3;spacingRight=3;rotatable=0;labelPosition=right;points=[];portConstraint=eastwest;" parent="1XZv7HSyNnlQdb31LOB--21" vertex="1">
          <mxGeometry y="160" width="450" height="8" as="geometry" />
        </mxCell>
        <mxCell id="1XZv7HSyNnlQdb31LOB--30" value="- GET /allRendezVousBySalon(Public, User, Admin, Coiffeur) &#xa;- GET /allRendezVousByHairdresser(Public, User, Admin, Coiffeur) &#xa;- GET /allRendezVousByDate(Public, User, Admin, Coiffeur) &#xa;- GET /allPastRendezVousClients(User, Admin) &#xa;- GET /allUpcomingRendezVousClients(User, Admin) &#xa;- GET /allPastRendezVousClientsByDate(User, Admin) &#xa;- GET /allUpcomingRendezVousClientsByDate(User, Admin) &#xa;- GET /allPastRendezVousClientsByService(User, Admin) &#xa;- GET /allUpcomingRendezVousClientsByService(User, Admin) &#xa;- GET /allPastRendezVousHairdresser(Coiffeur, Admin) &#xa;- GET /allUpcomingRendezVousHairdresser(Coiffeur, Admin) &#xa;- GET /allPastRendezVousHairdresserByDate(Coiffeur, Admin) &#xa;- GET /allUpcomingRendezVousHairdresserByDate(Coiffeur, Admin) &#xa;- GET /allPastRendezVousHairdresserByService(Coiffeur, Admin) &#xa;- GET /allUpcomingRendezVousHairdresserByService(Coiffeur, Admin) &#xa;- GET /rendezVous (User, Admin, Coiffeur) &#xa;- GET /dateRendezVous (User, Admin, Coiffeur) &#xa; &#xa;- POST /createRendezVousClient (User, Admin) &#xa;- POST /createRendezVousHairdresser (Admin, Coiffeur) &#xa; &#xa;- PUT /updateRendezVous (User, Admin, Coiffeur) &#xa; &#xa;- PATCH /updateDateRendezVous (User, Admin, Coiffeur) &#xa; &#xa;- DEL /deleteUpcomingRendezVous (User, Admin, Coiffeur) &#xa;- DEL /deletePastRendezVous (User, Admin, Coiffeur) " style="text;align=left;verticalAlign=top;spacingLeft=4;spacingRight=4;overflow=hidden;rotatable=0;points=[[0,0.5],[1,0.5]];portConstraint=eastwest;" parent="1XZv7HSyNnlQdb31LOB--21" vertex="1">
          <mxGeometry y="168" width="450" height="400" as="geometry" />
        </mxCell>
        <mxCell id="1XZv7HSyNnlQdb31LOB--40" value="Categorie" style="swimlane;fontStyle=0;align=center;verticalAlign=top;childLayout=stackLayout;horizontal=1;startSize=26;horizontalStack=0;resizeParent=1;resizeLast=0;collapsible=1;marginBottom=0;rounded=0;shadow=0;strokeWidth=1;" parent="WIyWlLk6GJQsqaUBKTNV-1" vertex="1">
          <mxGeometry x="1130" y="-162" width="280" height="310" as="geometry">
            <mxRectangle x="550" y="140" width="160" height="26" as="alternateBounds" />
          </mxGeometry>
        </mxCell>
        <mxCell id="LIrFVqC6FrregrjLPzAZ-41" value="Id_categorie int PK" style="text;align=left;verticalAlign=top;spacingLeft=4;spacingRight=4;overflow=hidden;rotatable=0;points=[[0,0.5],[1,0.5]];portConstraint=eastwest;" parent="1XZv7HSyNnlQdb31LOB--40" vertex="1">
          <mxGeometry y="26" width="280" height="26" as="geometry" />
        </mxCell>
        <mxCell id="1XZv7HSyNnlQdb31LOB--41" value="Nom string" style="text;align=left;verticalAlign=top;spacingLeft=4;spacingRight=4;overflow=hidden;rotatable=0;points=[[0,0.5],[1,0.5]];portConstraint=eastwest;" parent="1XZv7HSyNnlQdb31LOB--40" vertex="1">
          <mxGeometry y="52" width="280" height="26" as="geometry" />
        </mxCell>
        <mxCell id="LIrFVqC6FrregrjLPzAZ-42" value="Picture varchar(100)" style="text;align=left;verticalAlign=top;spacingLeft=4;spacingRight=4;overflow=hidden;rotatable=0;points=[[0,0.5],[1,0.5]];portConstraint=eastwest;" parent="1XZv7HSyNnlQdb31LOB--40" vertex="1">
          <mxGeometry y="78" width="280" height="26" as="geometry" />
        </mxCell>
        <mxCell id="LIrFVqC6FrregrjLPzAZ-43" value="Description varchar(500)" style="text;align=left;verticalAlign=top;spacingLeft=4;spacingRight=4;overflow=hidden;rotatable=0;points=[[0,0.5],[1,0.5]];portConstraint=eastwest;" parent="1XZv7HSyNnlQdb31LOB--40" vertex="1">
          <mxGeometry y="104" width="280" height="26" as="geometry" />
        </mxCell>
        <mxCell id="LIrFVqC6FrregrjLPzAZ-39" value="Created_at date" style="text;align=left;verticalAlign=top;spacingLeft=4;spacingRight=4;overflow=hidden;rotatable=0;points=[[0,0.5],[1,0.5]];portConstraint=eastwest;" parent="1XZv7HSyNnlQdb31LOB--40" vertex="1">
          <mxGeometry y="130" width="280" height="26" as="geometry" />
        </mxCell>
        <mxCell id="LIrFVqC6FrregrjLPzAZ-40" value="Updated_at date" style="text;align=left;verticalAlign=top;spacingLeft=4;spacingRight=4;overflow=hidden;rotatable=0;points=[[0,0.5],[1,0.5]];portConstraint=eastwest;" parent="1XZv7HSyNnlQdb31LOB--40" vertex="1">
          <mxGeometry y="156" width="280" height="26" as="geometry" />
        </mxCell>
        <mxCell id="1XZv7HSyNnlQdb31LOB--47" value="" style="line;html=1;strokeWidth=1;align=left;verticalAlign=middle;spacingTop=-1;spacingLeft=3;spacingRight=3;rotatable=0;labelPosition=right;points=[];portConstraint=eastwest;" parent="1XZv7HSyNnlQdb31LOB--40" vertex="1">
          <mxGeometry y="182" width="280" height="8" as="geometry" />
        </mxCell>
        <mxCell id="1XZv7HSyNnlQdb31LOB--48" value="- GET /category(Public, Admin, User)&#xa;- GET /allCategories (Public, Admin, User) &#xa; &#xa;- POST /createCategory(Admin) &#xa; &#xa;- PUT /updateCategory(Admin) &#xa; &#xa;- DEL /deleteCategory (Admin) " style="text;align=left;verticalAlign=top;spacingLeft=4;spacingRight=4;overflow=hidden;rotatable=0;points=[[0,0.5],[1,0.5]];portConstraint=eastwest;" parent="1XZv7HSyNnlQdb31LOB--40" vertex="1">
          <mxGeometry y="190" width="280" height="120" as="geometry" />
        </mxCell>
        <mxCell id="1XZv7HSyNnlQdb31LOB--49" value="Notifications" style="swimlane;fontStyle=0;align=center;verticalAlign=top;childLayout=stackLayout;horizontal=1;startSize=26;horizontalStack=0;resizeParent=1;resizeLast=0;collapsible=1;marginBottom=0;rounded=0;shadow=0;strokeWidth=1;" parent="WIyWlLk6GJQsqaUBKTNV-1" vertex="1">
          <mxGeometry x="10" y="760" width="240" height="244" as="geometry">
            <mxRectangle x="550" y="140" width="160" height="26" as="alternateBounds" />
          </mxGeometry>
        </mxCell>
        <mxCell id="LIrFVqC6FrregrjLPzAZ-8" value="Id_notif int PK" style="text;align=left;verticalAlign=top;spacingLeft=4;spacingRight=4;overflow=hidden;rotatable=0;points=[[0,0.5],[1,0.5]];portConstraint=eastwest;" parent="1XZv7HSyNnlQdb31LOB--49" vertex="1">
          <mxGeometry y="26" width="240" height="26" as="geometry" />
        </mxCell>
        <mxCell id="LIrFVqC6FrregrjLPzAZ-9" value="Texte string" style="text;align=left;verticalAlign=top;spacingLeft=4;spacingRight=4;overflow=hidden;rotatable=0;points=[[0,0.5],[1,0.5]];portConstraint=eastwest;" parent="1XZv7HSyNnlQdb31LOB--49" vertex="1">
          <mxGeometry y="52" width="240" height="26" as="geometry" />
        </mxCell>
        <mxCell id="LIrFVqC6FrregrjLPzAZ-21" value="Updated_at date" style="text;align=left;verticalAlign=top;spacingLeft=4;spacingRight=4;overflow=hidden;rotatable=0;points=[[0,0.5],[1,0.5]];portConstraint=eastwest;" parent="1XZv7HSyNnlQdb31LOB--49" vertex="1">
          <mxGeometry y="78" width="240" height="26" as="geometry" />
        </mxCell>
        <mxCell id="LIrFVqC6FrregrjLPzAZ-20" value="Created_at date" style="text;align=left;verticalAlign=top;spacingLeft=4;spacingRight=4;overflow=hidden;rotatable=0;points=[[0,0.5],[1,0.5]];portConstraint=eastwest;" parent="1XZv7HSyNnlQdb31LOB--49" vertex="1">
          <mxGeometry y="104" width="240" height="26" as="geometry" />
        </mxCell>
        <mxCell id="1XZv7HSyNnlQdb31LOB--50" value="Id_users int FK" style="text;align=left;verticalAlign=top;spacingLeft=4;spacingRight=4;overflow=hidden;rotatable=0;points=[[0,0.5],[1,0.5]];portConstraint=eastwest;" parent="1XZv7HSyNnlQdb31LOB--49" vertex="1">
          <mxGeometry y="130" width="240" height="26" as="geometry" />
        </mxCell>
        <mxCell id="1XZv7HSyNnlQdb31LOB--51" value="" style="line;html=1;strokeWidth=1;align=left;verticalAlign=middle;spacingTop=-1;spacingLeft=3;spacingRight=3;rotatable=0;labelPosition=right;points=[];portConstraint=eastwest;" parent="1XZv7HSyNnlQdb31LOB--49" vertex="1">
          <mxGeometry y="156" width="240" height="8" as="geometry" />
        </mxCell>
        <mxCell id="1XZv7HSyNnlQdb31LOB--79" value="- GET /Notification (User, Admin) &#xa;- GET /ToutesLesNotifications (Admin) &#xa;- GET /NotificationParUtilisateur (User, Admin) &#xa; &#xa;- DEL /SupprimerNotification (User, Admin) " style="text;align=left;verticalAlign=top;spacingLeft=4;spacingRight=4;overflow=hidden;rotatable=0;points=[[0,0.5],[1,0.5]];portConstraint=eastwest;" parent="1XZv7HSyNnlQdb31LOB--49" vertex="1">
          <mxGeometry y="164" width="240" height="80" as="geometry" />
        </mxCell>
        <mxCell id="1XZv7HSyNnlQdb31LOB--53" value="Avis" style="swimlane;fontStyle=0;align=center;verticalAlign=top;childLayout=stackLayout;horizontal=1;startSize=26;horizontalStack=0;resizeParent=1;resizeLast=0;collapsible=1;marginBottom=0;rounded=0;shadow=0;strokeWidth=1;" parent="WIyWlLk6GJQsqaUBKTNV-1" vertex="1">
          <mxGeometry x="535" y="650" width="360" height="484" as="geometry">
            <mxRectangle x="550" y="140" width="160" height="26" as="alternateBounds" />
          </mxGeometry>
        </mxCell>
        <mxCell id="LIrFVqC6FrregrjLPzAZ-35" value="Id_avis int PK" style="text;align=left;verticalAlign=top;spacingLeft=4;spacingRight=4;overflow=hidden;rotatable=0;points=[[0,0.5],[1,0.5]];portConstraint=eastwest;" parent="1XZv7HSyNnlQdb31LOB--53" vertex="1">
          <mxGeometry y="26" width="360" height="26" as="geometry" />
        </mxCell>
        <mxCell id="1XZv7HSyNnlQdb31LOB--54" value="Rating int" style="text;align=left;verticalAlign=top;spacingLeft=4;spacingRight=4;overflow=hidden;rotatable=0;points=[[0,0.5],[1,0.5]];portConstraint=eastwest;" parent="1XZv7HSyNnlQdb31LOB--53" vertex="1">
          <mxGeometry y="52" width="360" height="26" as="geometry" />
        </mxCell>
        <mxCell id="1XZv7HSyNnlQdb31LOB--57" value="Description string" style="text;align=left;verticalAlign=top;spacingLeft=4;spacingRight=4;overflow=hidden;rotatable=0;points=[[0,0.5],[1,0.5]];portConstraint=eastwest;" parent="1XZv7HSyNnlQdb31LOB--53" vertex="1">
          <mxGeometry y="78" width="360" height="26" as="geometry" />
        </mxCell>
        <mxCell id="LIrFVqC6FrregrjLPzAZ-33" value="Created_at date" style="text;align=left;verticalAlign=top;spacingLeft=4;spacingRight=4;overflow=hidden;rotatable=0;points=[[0,0.5],[1,0.5]];portConstraint=eastwest;" parent="1XZv7HSyNnlQdb31LOB--53" vertex="1">
          <mxGeometry y="104" width="360" height="26" as="geometry" />
        </mxCell>
        <mxCell id="LIrFVqC6FrregrjLPzAZ-34" value="Updated_at date" style="text;align=left;verticalAlign=top;spacingLeft=4;spacingRight=4;overflow=hidden;rotatable=0;points=[[0,0.5],[1,0.5]];portConstraint=eastwest;" parent="1XZv7HSyNnlQdb31LOB--53" vertex="1">
          <mxGeometry y="130" width="360" height="26" as="geometry" />
        </mxCell>
        <mxCell id="LIrFVqC6FrregrjLPzAZ-36" value="Id_salon int FK" style="text;align=left;verticalAlign=top;spacingLeft=4;spacingRight=4;overflow=hidden;rotatable=0;points=[[0,0.5],[1,0.5]];portConstraint=eastwest;" parent="1XZv7HSyNnlQdb31LOB--53" vertex="1">
          <mxGeometry y="156" width="360" height="26" as="geometry" />
        </mxCell>
        <mxCell id="1XZv7HSyNnlQdb31LOB--55" value="" style="line;html=1;strokeWidth=1;align=left;verticalAlign=middle;spacingTop=-1;spacingLeft=3;spacingRight=3;rotatable=0;labelPosition=right;points=[];portConstraint=eastwest;" parent="1XZv7HSyNnlQdb31LOB--53" vertex="1">
          <mxGeometry y="182" width="360" height="8" as="geometry" />
        </mxCell>
        <mxCell id="1XZv7HSyNnlQdb31LOB--56" value="- GET /review (User, Admin) &#xa;- GET /ratingReview(User, Admin) &#xa;- GET /allReviewBySalon(User, Admin, Coiffeur) &#xa;- GET /allReviewPerDate (User, Admin, Coiffeur) &#xa;- GET /averageRatingBySalon (User, Admin, Coiffeur) &#xa;- GET /allReviewByUser (User, Admin) &#xa;- GET /reviewDescription (User, Admin) &#xa; &#xa; &#xa;- POST /review(User, Admin) &#xa; &#xa;- PUT /review(Admin, User) &#xa; &#xa; &#xa;- PATCH /reviewDescription(Admin, User) &#xa;- PATCH /reviewRating (Admin, User) &#xa; &#xa; &#xa;- DEL /deleterReview(Admin, User) " style="text;align=left;verticalAlign=top;spacingLeft=4;spacingRight=4;overflow=hidden;rotatable=0;points=[[0,0.5],[1,0.5]];portConstraint=eastwest;" parent="1XZv7HSyNnlQdb31LOB--53" vertex="1">
          <mxGeometry y="190" width="360" height="294" as="geometry" />
        </mxCell>
        <mxCell id="1XZv7HSyNnlQdb31LOB--58" value="PolitiqueConfidentialité" style="swimlane;fontStyle=0;align=center;verticalAlign=top;childLayout=stackLayout;horizontal=1;startSize=26;horizontalStack=0;resizeParent=1;resizeLast=0;collapsible=1;marginBottom=0;rounded=0;shadow=0;strokeWidth=1;" parent="WIyWlLk6GJQsqaUBKTNV-1" vertex="1">
          <mxGeometry x="10" y="1030" width="280" height="228" as="geometry">
            <mxRectangle x="550" y="140" width="160" height="26" as="alternateBounds" />
          </mxGeometry>
        </mxCell>
        <mxCell id="1XZv7HSyNnlQdb31LOB--59" value="Id_politiqueC int PK" style="text;align=left;verticalAlign=top;spacingLeft=4;spacingRight=4;overflow=hidden;rotatable=0;points=[[0,0.5],[1,0.5]];portConstraint=eastwest;" parent="1XZv7HSyNnlQdb31LOB--58" vertex="1">
          <mxGeometry y="26" width="280" height="26" as="geometry" />
        </mxCell>
        <mxCell id="LIrFVqC6FrregrjLPzAZ-10" value="Lien string" style="text;align=left;verticalAlign=top;spacingLeft=4;spacingRight=4;overflow=hidden;rotatable=0;points=[[0,0.5],[1,0.5]];portConstraint=eastwest;" parent="1XZv7HSyNnlQdb31LOB--58" vertex="1">
          <mxGeometry y="52" width="280" height="26" as="geometry" />
        </mxCell>
        <mxCell id="LIrFVqC6FrregrjLPzAZ-12" value="Created_at date" style="text;align=left;verticalAlign=top;spacingLeft=4;spacingRight=4;overflow=hidden;rotatable=0;points=[[0,0.5],[1,0.5]];portConstraint=eastwest;" parent="1XZv7HSyNnlQdb31LOB--58" vertex="1">
          <mxGeometry y="78" width="280" height="26" as="geometry" />
        </mxCell>
        <mxCell id="LIrFVqC6FrregrjLPzAZ-13" value="Updated_at date" style="text;align=left;verticalAlign=top;spacingLeft=4;spacingRight=4;overflow=hidden;rotatable=0;points=[[0,0.5],[1,0.5]];portConstraint=eastwest;" parent="1XZv7HSyNnlQdb31LOB--58" vertex="1">
          <mxGeometry y="104" width="280" height="26" as="geometry" />
        </mxCell>
        <mxCell id="1XZv7HSyNnlQdb31LOB--60" value="" style="line;html=1;strokeWidth=1;align=left;verticalAlign=middle;spacingTop=-1;spacingLeft=3;spacingRight=3;rotatable=0;labelPosition=right;points=[];portConstraint=eastwest;" parent="1XZv7HSyNnlQdb31LOB--58" vertex="1">
          <mxGeometry y="130" width="280" height="8" as="geometry" />
        </mxCell>
        <mxCell id="1XZv7HSyNnlQdb31LOB--80" value="- GET /PolitiqueConfidentialité (Public, Admin) &#xa; &#xa;- PATCH /PolitiqueConfidentialité (Admin) &#xa; &#xa;- DEL /PolitiqueConfidentialité (Admin) &#xa; " style="text;align=left;verticalAlign=top;spacingLeft=4;spacingRight=4;overflow=hidden;rotatable=0;points=[[0,0.5],[1,0.5]];portConstraint=eastwest;" parent="1XZv7HSyNnlQdb31LOB--58" vertex="1">
          <mxGeometry y="138" width="280" height="90" as="geometry" />
        </mxCell>
        <mxCell id="1XZv7HSyNnlQdb31LOB--61" value="Cookies" style="swimlane;fontStyle=0;align=center;verticalAlign=top;childLayout=stackLayout;horizontal=1;startSize=26;horizontalStack=0;resizeParent=1;resizeLast=0;collapsible=1;marginBottom=0;rounded=0;shadow=0;strokeWidth=1;" parent="WIyWlLk6GJQsqaUBKTNV-1" vertex="1">
          <mxGeometry x="10" y="1270" width="230" height="250" as="geometry">
            <mxRectangle x="550" y="140" width="160" height="26" as="alternateBounds" />
          </mxGeometry>
        </mxCell>
        <mxCell id="1XZv7HSyNnlQdb31LOB--62" value="Id_cookies int PK" style="text;align=left;verticalAlign=top;spacingLeft=4;spacingRight=4;overflow=hidden;rotatable=0;points=[[0,0.5],[1,0.5]];portConstraint=eastwest;" parent="1XZv7HSyNnlQdb31LOB--61" vertex="1">
          <mxGeometry y="26" width="230" height="26" as="geometry" />
        </mxCell>
        <mxCell id="LIrFVqC6FrregrjLPzAZ-18" value="Choix string" style="text;align=left;verticalAlign=top;spacingLeft=4;spacingRight=4;overflow=hidden;rotatable=0;points=[[0,0.5],[1,0.5]];portConstraint=eastwest;" parent="1XZv7HSyNnlQdb31LOB--61" vertex="1">
          <mxGeometry y="52" width="230" height="26" as="geometry" />
        </mxCell>
        <mxCell id="LIrFVqC6FrregrjLPzAZ-16" value="Created_at date" style="text;align=left;verticalAlign=top;spacingLeft=4;spacingRight=4;overflow=hidden;rotatable=0;points=[[0,0.5],[1,0.5]];portConstraint=eastwest;" parent="1XZv7HSyNnlQdb31LOB--61" vertex="1">
          <mxGeometry y="78" width="230" height="26" as="geometry" />
        </mxCell>
        <mxCell id="LIrFVqC6FrregrjLPzAZ-17" value="Updated_at date" style="text;align=left;verticalAlign=top;spacingLeft=4;spacingRight=4;overflow=hidden;rotatable=0;points=[[0,0.5],[1,0.5]];portConstraint=eastwest;" parent="1XZv7HSyNnlQdb31LOB--61" vertex="1">
          <mxGeometry y="104" width="230" height="26" as="geometry" />
        </mxCell>
        <mxCell id="1XZv7HSyNnlQdb31LOB--63" value="" style="line;html=1;strokeWidth=1;align=left;verticalAlign=middle;spacingTop=-1;spacingLeft=3;spacingRight=3;rotatable=0;labelPosition=right;points=[];portConstraint=eastwest;" parent="1XZv7HSyNnlQdb31LOB--61" vertex="1">
          <mxGeometry y="130" width="230" height="8" as="geometry" />
        </mxCell>
        <mxCell id="1XZv7HSyNnlQdb31LOB--81" value="- GET /Cookies (Public, Admin, User) &#xa;- GET /ChoixCookies (User, Admin) &#xa; &#xa;- POST /ChoixCookies (User) &#xa; &#xa;- PUT /Cookies (User, Admin) " style="text;align=left;verticalAlign=top;spacingLeft=4;spacingRight=4;overflow=hidden;rotatable=0;points=[[0,0.5],[1,0.5]];portConstraint=eastwest;" parent="1XZv7HSyNnlQdb31LOB--61" vertex="1">
          <mxGeometry y="138" width="230" height="102" as="geometry" />
        </mxCell>
        <mxCell id="1XZv7HSyNnlQdb31LOB--83" value="" style="endArrow=none;html=1;rounded=0;entryX=-0.002;entryY=0.121;entryDx=0;entryDy=0;exitX=0.998;exitY=0.188;exitDx=0;exitDy=0;exitPerimeter=0;entryPerimeter=0;" parent="WIyWlLk6GJQsqaUBKTNV-1" source="zkfFHV4jXpPFQw0GAbJ--5" target="zkfFHV4jXpPFQw0GAbJ--24" edge="1">
          <mxGeometry width="50" height="50" relative="1" as="geometry">
            <mxPoint x="360" y="130" as="sourcePoint" />
            <mxPoint x="430" y="100" as="targetPoint" />
          </mxGeometry>
        </mxCell>
        <mxCell id="1XZv7HSyNnlQdb31LOB--85" value="&lt;font style=&quot;font-size: 12px;&quot;&gt;0.1&lt;/font&gt;" style="text;strokeColor=none;fillColor=none;html=1;fontSize=24;fontStyle=1;verticalAlign=middle;align=center;" parent="WIyWlLk6GJQsqaUBKTNV-1" vertex="1">
          <mxGeometry x="310" y="60" width="30" height="10" as="geometry" />
        </mxCell>
        <mxCell id="1XZv7HSyNnlQdb31LOB--86" value="&lt;font style=&quot;font-size: 12px;&quot;&gt;1.n&lt;/font&gt;" style="text;strokeColor=none;fillColor=none;html=1;fontSize=24;fontStyle=1;verticalAlign=middle;align=center;" parent="WIyWlLk6GJQsqaUBKTNV-1" vertex="1">
          <mxGeometry x="500" y="55" width="30" height="15" as="geometry" />
        </mxCell>
        <mxCell id="1XZv7HSyNnlQdb31LOB--87" value="&lt;font style=&quot;font-size: 12px;&quot;&gt;1.1&lt;/font&gt;" style="text;strokeColor=none;fillColor=none;html=1;fontSize=24;fontStyle=1;verticalAlign=middle;align=center;" parent="WIyWlLk6GJQsqaUBKTNV-1" vertex="1">
          <mxGeometry x="910" y="-12" width="30" height="10" as="geometry" />
        </mxCell>
        <mxCell id="1XZv7HSyNnlQdb31LOB--91" value="" style="endArrow=none;html=1;rounded=0;exitX=1;exitY=0.5;exitDx=0;exitDy=0;entryX=-0.001;entryY=0.402;entryDx=0;entryDy=0;entryPerimeter=0;" parent="WIyWlLk6GJQsqaUBKTNV-1" source="zkfFHV4jXpPFQw0GAbJ--20" target="LIrFVqC6FrregrjLPzAZ-39" edge="1">
          <mxGeometry width="50" height="50" relative="1" as="geometry">
            <mxPoint x="980" y="130" as="sourcePoint" />
            <mxPoint x="1030" y="80" as="targetPoint" />
          </mxGeometry>
        </mxCell>
        <mxCell id="1XZv7HSyNnlQdb31LOB--94" value="&lt;font style=&quot;font-size: 12px;&quot;&gt;1.n&lt;/font&gt;" style="text;strokeColor=none;fillColor=none;html=1;fontSize=24;fontStyle=1;verticalAlign=middle;align=center;" parent="WIyWlLk6GJQsqaUBKTNV-1" vertex="1">
          <mxGeometry x="1100" y="-12" width="30" height="10" as="geometry" />
        </mxCell>
        <mxCell id="1XZv7HSyNnlQdb31LOB--95" value="&lt;font style=&quot;font-size: 12px;&quot;&gt;1.n&lt;/font&gt;" style="text;strokeColor=none;fillColor=none;html=1;fontSize=24;fontStyle=1;verticalAlign=middle;align=center;" parent="WIyWlLk6GJQsqaUBKTNV-1" vertex="1">
          <mxGeometry x="900" y="330" width="30" height="10" as="geometry" />
        </mxCell>
        <mxCell id="1XZv7HSyNnlQdb31LOB--96" value="" style="endArrow=none;html=1;rounded=0;exitX=0.999;exitY=0.528;exitDx=0;exitDy=0;exitPerimeter=0;" parent="WIyWlLk6GJQsqaUBKTNV-1" source="zkfFHV4jXpPFQw0GAbJ--25" edge="1">
          <mxGeometry width="50" height="50" relative="1" as="geometry">
            <mxPoint x="910" y="350" as="sourcePoint" />
            <mxPoint x="1120" y="350" as="targetPoint" />
          </mxGeometry>
        </mxCell>
        <mxCell id="1XZv7HSyNnlQdb31LOB--98" value="&lt;font style=&quot;font-size: 12px;&quot;&gt;1.1&lt;/font&gt;" style="text;strokeColor=none;fillColor=none;html=1;fontSize=24;fontStyle=1;verticalAlign=middle;align=center;" parent="WIyWlLk6GJQsqaUBKTNV-1" vertex="1">
          <mxGeometry x="1090" y="330" width="30" height="10" as="geometry" />
        </mxCell>
        <mxCell id="1XZv7HSyNnlQdb31LOB--100" value="&lt;font style=&quot;font-size: 12px;&quot;&gt;0.n&lt;/font&gt;" style="text;strokeColor=none;fillColor=none;html=1;fontSize=24;fontStyle=1;verticalAlign=middle;align=center;" parent="WIyWlLk6GJQsqaUBKTNV-1" vertex="1">
          <mxGeometry x="715" y="530" width="30" height="20" as="geometry" />
        </mxCell>
        <mxCell id="1XZv7HSyNnlQdb31LOB--101" value="&lt;font style=&quot;font-size: 12px;&quot;&gt;1.1&lt;/font&gt;" style="text;strokeColor=none;fillColor=none;html=1;fontSize=24;fontStyle=1;verticalAlign=middle;align=center;" parent="WIyWlLk6GJQsqaUBKTNV-1" vertex="1">
          <mxGeometry x="715" y="620" width="30" height="20" as="geometry" />
        </mxCell>
        <mxCell id="1XZv7HSyNnlQdb31LOB--102" value="" style="endArrow=none;html=1;rounded=0;exitX=0.462;exitY=-0.003;exitDx=0;exitDy=0;exitPerimeter=0;entryX=0.449;entryY=0.999;entryDx=0;entryDy=0;entryPerimeter=0;" parent="WIyWlLk6GJQsqaUBKTNV-1" source="1XZv7HSyNnlQdb31LOB--53" target="zkfFHV4jXpPFQw0GAbJ--25" edge="1">
          <mxGeometry width="50" height="50" relative="1" as="geometry">
            <mxPoint x="650" y="620" as="sourcePoint" />
            <mxPoint x="700" y="570" as="targetPoint" />
          </mxGeometry>
        </mxCell>
        <mxCell id="1XZv7HSyNnlQdb31LOB--104" value="" style="endArrow=none;html=1;rounded=0;exitX=0.5;exitY=0;exitDx=0;exitDy=0;entryX=0.332;entryY=1;entryDx=0;entryDy=0;entryPerimeter=0;" parent="WIyWlLk6GJQsqaUBKTNV-1" source="1XZv7HSyNnlQdb31LOB--49" target="1XZv7HSyNnlQdb31LOB--4" edge="1">
          <mxGeometry width="50" height="50" relative="1" as="geometry">
            <mxPoint x="160" y="760" as="sourcePoint" />
            <mxPoint x="130" y="700" as="targetPoint" />
          </mxGeometry>
        </mxCell>
        <mxCell id="1XZv7HSyNnlQdb31LOB--105" value="&lt;font style=&quot;font-size: 12px;&quot;&gt;0.n&lt;/font&gt;" style="text;strokeColor=none;fillColor=none;html=1;fontSize=24;fontStyle=1;verticalAlign=middle;align=center;" parent="WIyWlLk6GJQsqaUBKTNV-1" vertex="1">
          <mxGeometry x="130" y="650" width="30" height="20" as="geometry" />
        </mxCell>
        <mxCell id="1XZv7HSyNnlQdb31LOB--106" value="&lt;font style=&quot;font-size: 12px;&quot;&gt;1.1&lt;/font&gt;" style="text;strokeColor=none;fillColor=none;html=1;fontSize=24;fontStyle=1;verticalAlign=middle;align=center;" parent="WIyWlLk6GJQsqaUBKTNV-1" vertex="1">
          <mxGeometry x="130" y="740" width="30" height="20" as="geometry" />
        </mxCell>
        <mxCell id="1XZv7HSyNnlQdb31LOB--109" value="" style="endArrow=none;html=1;rounded=0;exitX=0.945;exitY=-0.001;exitDx=0;exitDy=0;exitPerimeter=0;entryX=1.002;entryY=0.701;entryDx=0;entryDy=0;entryPerimeter=0;" parent="WIyWlLk6GJQsqaUBKTNV-1" source="1XZv7HSyNnlQdb31LOB--58" target="1XZv7HSyNnlQdb31LOB--4" edge="1">
          <mxGeometry width="50" height="50" relative="1" as="geometry">
            <mxPoint x="280" y="900" as="sourcePoint" />
            <mxPoint x="360" y="500" as="targetPoint" />
            <Array as="points">
              <mxPoint x="275" y="800" />
              <mxPoint x="360" y="800" />
              <mxPoint x="360" y="547" />
            </Array>
          </mxGeometry>
        </mxCell>
        <mxCell id="1XZv7HSyNnlQdb31LOB--110" value="&lt;font style=&quot;font-size: 12px;&quot;&gt;1.1&lt;/font&gt;" style="text;strokeColor=none;fillColor=none;html=1;fontSize=24;fontStyle=1;verticalAlign=middle;align=center;" parent="WIyWlLk6GJQsqaUBKTNV-1" vertex="1">
          <mxGeometry x="310" y="520" width="30" height="20" as="geometry" />
        </mxCell>
        <mxCell id="1XZv7HSyNnlQdb31LOB--111" value="&lt;font style=&quot;font-size: 12px;&quot;&gt;0.n&lt;/font&gt;" style="text;strokeColor=none;fillColor=none;html=1;fontSize=24;fontStyle=1;verticalAlign=middle;align=center;" parent="WIyWlLk6GJQsqaUBKTNV-1" vertex="1">
          <mxGeometry x="280" y="1000" width="30" height="20" as="geometry" />
        </mxCell>
        <mxCell id="1XZv7HSyNnlQdb31LOB--112" value="" style="endArrow=none;html=1;rounded=0;entryX=0.001;entryY=0.86;entryDx=0;entryDy=0;entryPerimeter=0;exitX=0;exitY=0.772;exitDx=0;exitDy=0;exitPerimeter=0;" parent="WIyWlLk6GJQsqaUBKTNV-1" source="1XZv7HSyNnlQdb31LOB--4" target="LIrFVqC6FrregrjLPzAZ-16" edge="1">
          <mxGeometry width="50" height="50" relative="1" as="geometry">
            <mxPoint x="-40" y="530" as="sourcePoint" />
            <mxPoint y="1190" as="targetPoint" />
            <Array as="points">
              <mxPoint x="-40" y="572" />
              <mxPoint x="-40" y="1370" />
            </Array>
          </mxGeometry>
        </mxCell>
        <mxCell id="1XZv7HSyNnlQdb31LOB--113" value="&lt;font style=&quot;font-size: 12px;&quot;&gt;1.1&lt;/font&gt;" style="text;strokeColor=none;fillColor=none;html=1;fontSize=24;fontStyle=1;verticalAlign=middle;align=center;" parent="WIyWlLk6GJQsqaUBKTNV-1" vertex="1">
          <mxGeometry x="10" y="550" width="30" height="20" as="geometry" />
        </mxCell>
        <mxCell id="1XZv7HSyNnlQdb31LOB--114" value="&lt;font style=&quot;font-size: 12px;&quot;&gt;0.n&lt;/font&gt;" style="text;strokeColor=none;fillColor=none;html=1;fontSize=24;fontStyle=1;verticalAlign=middle;align=center;" parent="WIyWlLk6GJQsqaUBKTNV-1" vertex="1">
          <mxGeometry x="-20" y="1340" width="30" height="20" as="geometry" />
        </mxCell>
        <mxCell id="1XZv7HSyNnlQdb31LOB--64" value="Proche" style="swimlane;fontStyle=0;align=center;verticalAlign=top;childLayout=stackLayout;horizontal=1;startSize=26;horizontalStack=0;resizeParent=1;resizeLast=0;collapsible=1;marginBottom=0;rounded=0;shadow=0;strokeWidth=1;" parent="WIyWlLk6GJQsqaUBKTNV-1" vertex="1">
          <mxGeometry x="-290" y="-92" width="240" height="534" as="geometry">
            <mxRectangle x="550" y="140" width="160" height="26" as="alternateBounds" />
          </mxGeometry>
        </mxCell>
        <mxCell id="LIrFVqC6FrregrjLPzAZ-1" value="Id_proche int PK" style="text;align=left;verticalAlign=top;spacingLeft=4;spacingRight=4;overflow=hidden;rotatable=0;points=[[0,0.5],[1,0.5]];portConstraint=eastwest;" parent="1XZv7HSyNnlQdb31LOB--64" vertex="1">
          <mxGeometry y="26" width="240" height="26" as="geometry" />
        </mxCell>
        <mxCell id="1XZv7HSyNnlQdb31LOB--65" value="Nom string" style="text;align=left;verticalAlign=top;spacingLeft=4;spacingRight=4;overflow=hidden;rotatable=0;points=[[0,0.5],[1,0.5]];portConstraint=eastwest;" parent="1XZv7HSyNnlQdb31LOB--64" vertex="1">
          <mxGeometry y="52" width="240" height="26" as="geometry" />
        </mxCell>
        <mxCell id="1XZv7HSyNnlQdb31LOB--66" value="Prenom string" style="text;align=left;verticalAlign=top;spacingLeft=4;spacingRight=4;overflow=hidden;rotatable=0;points=[[0,0.5],[1,0.5]];portConstraint=eastwest;rounded=0;shadow=0;html=0;" parent="1XZv7HSyNnlQdb31LOB--64" vertex="1">
          <mxGeometry y="78" width="240" height="26" as="geometry" />
        </mxCell>
        <mxCell id="1XZv7HSyNnlQdb31LOB--67" value="Age int" style="text;align=left;verticalAlign=top;spacingLeft=4;spacingRight=4;overflow=hidden;rotatable=0;points=[[0,0.5],[1,0.5]];portConstraint=eastwest;rounded=0;shadow=0;html=0;" parent="1XZv7HSyNnlQdb31LOB--64" vertex="1">
          <mxGeometry y="104" width="240" height="26" as="geometry" />
        </mxCell>
        <mxCell id="1XZv7HSyNnlQdb31LOB--68" value="Mail string" style="text;align=left;verticalAlign=top;spacingLeft=4;spacingRight=4;overflow=hidden;rotatable=0;points=[[0,0.5],[1,0.5]];portConstraint=eastwest;rounded=0;shadow=0;html=0;" parent="1XZv7HSyNnlQdb31LOB--64" vertex="1">
          <mxGeometry y="130" width="240" height="26" as="geometry" />
        </mxCell>
        <mxCell id="1XZv7HSyNnlQdb31LOB--69" value="Telephone string" style="text;align=left;verticalAlign=top;spacingLeft=4;spacingRight=4;overflow=hidden;rotatable=0;points=[[0,0.5],[1,0.5]];portConstraint=eastwest;rounded=0;shadow=0;html=0;" parent="1XZv7HSyNnlQdb31LOB--64" vertex="1">
          <mxGeometry y="156" width="240" height="26" as="geometry" />
        </mxCell>
        <mxCell id="LIrFVqC6FrregrjLPzAZ-27" value="Created_at date" style="text;align=left;verticalAlign=top;spacingLeft=4;spacingRight=4;overflow=hidden;rotatable=0;points=[[0,0.5],[1,0.5]];portConstraint=eastwest;" parent="1XZv7HSyNnlQdb31LOB--64" vertex="1">
          <mxGeometry y="182" width="240" height="26" as="geometry" />
        </mxCell>
        <mxCell id="LIrFVqC6FrregrjLPzAZ-28" value="Updated_at date" style="text;align=left;verticalAlign=top;spacingLeft=4;spacingRight=4;overflow=hidden;rotatable=0;points=[[0,0.5],[1,0.5]];portConstraint=eastwest;" parent="1XZv7HSyNnlQdb31LOB--64" vertex="1">
          <mxGeometry y="208" width="240" height="26" as="geometry" />
        </mxCell>
        <mxCell id="LIrFVqC6FrregrjLPzAZ-2" value="Id_users int FK" style="text;align=left;verticalAlign=top;spacingLeft=4;spacingRight=4;overflow=hidden;rotatable=0;points=[[0,0.5],[1,0.5]];portConstraint=eastwest;" parent="1XZv7HSyNnlQdb31LOB--64" vertex="1">
          <mxGeometry y="234" width="240" height="26" as="geometry" />
        </mxCell>
        <mxCell id="1XZv7HSyNnlQdb31LOB--71" value="" style="line;html=1;strokeWidth=1;align=left;verticalAlign=middle;spacingTop=-1;spacingLeft=3;spacingRight=3;rotatable=0;labelPosition=right;points=[];portConstraint=eastwest;" parent="1XZv7HSyNnlQdb31LOB--64" vertex="1">
          <mxGeometry y="260" width="240" height="8" as="geometry" />
        </mxCell>
        <mxCell id="1XZv7HSyNnlQdb31LOB--72" value="- GET /Proche (User, Admin) &#xa; &#xa;- POST /Proche (User) &#xa; &#xa;- PUT /Proche (User) &#xa; &#xa;- PATCH /NomProche (User) &#xa;- PATCH /PrenomProche (User) &#xa;- PATCH /AgeProche (User) &#xa;- PATCH /MailProche (User) &#xa;- PATCH /TelProche (User) &#xa; &#xa; &#xa;- DEL /NomProche (User) &#xa;- DEL /PrenomProche (User) &#xa;- DEL /AgeProche (User) &#xa;- DEL /MailProche (User) &#xa;- DEL /TelProche (User) " style="text;align=left;verticalAlign=top;spacingLeft=4;spacingRight=4;overflow=hidden;rotatable=0;points=[[0,0.5],[1,0.5]];portConstraint=eastwest;" parent="1XZv7HSyNnlQdb31LOB--64" vertex="1">
          <mxGeometry y="268" width="240" height="266" as="geometry" />
        </mxCell>
        <mxCell id="1XZv7HSyNnlQdb31LOB--115" value="" style="endArrow=none;html=1;rounded=0;exitX=1;exitY=0.5;exitDx=0;exitDy=0;entryX=0;entryY=0.5;entryDx=0;entryDy=0;" parent="WIyWlLk6GJQsqaUBKTNV-1" source="1XZv7HSyNnlQdb31LOB--67" target="zkfFHV4jXpPFQw0GAbJ--3" edge="1">
          <mxGeometry width="50" height="50" relative="1" as="geometry">
            <mxPoint x="-40" y="130" as="sourcePoint" />
            <mxPoint x="10" y="80" as="targetPoint" />
          </mxGeometry>
        </mxCell>
        <mxCell id="1XZv7HSyNnlQdb31LOB--116" value="&lt;font style=&quot;font-size: 12px;&quot;&gt;1.1&lt;/font&gt;" style="text;strokeColor=none;fillColor=none;html=1;fontSize=24;fontStyle=1;verticalAlign=middle;align=center;" parent="WIyWlLk6GJQsqaUBKTNV-1" vertex="1">
          <mxGeometry x="-50" y="30" width="30" height="10" as="geometry" />
        </mxCell>
        <mxCell id="1XZv7HSyNnlQdb31LOB--117" value="&lt;font style=&quot;font-size: 12px;&quot;&gt;0.n&lt;/font&gt;" style="text;strokeColor=none;fillColor=none;html=1;fontSize=24;fontStyle=1;verticalAlign=middle;align=center;" parent="WIyWlLk6GJQsqaUBKTNV-1" vertex="1">
          <mxGeometry x="10" y="10" width="30" height="10" as="geometry" />
        </mxCell>
        <mxCell id="1XZv7HSyNnlQdb31LOB--119" value="" style="endArrow=none;html=1;rounded=0;exitX=0.5;exitY=0;exitDx=0;exitDy=0;" parent="WIyWlLk6GJQsqaUBKTNV-1" source="zkfFHV4jXpPFQw0GAbJ--0" edge="1">
          <mxGeometry width="50" height="50" relative="1" as="geometry">
            <mxPoint x="174.9" y="-162" as="sourcePoint" />
            <mxPoint x="175" y="-180" as="targetPoint" />
          </mxGeometry>
        </mxCell>
        <mxCell id="1XZv7HSyNnlQdb31LOB--120" value="&lt;font style=&quot;font-size: 12px;&quot;&gt;0.n&lt;/font&gt;" style="text;strokeColor=none;fillColor=none;html=1;fontSize=24;fontStyle=1;verticalAlign=middle;align=center;" parent="WIyWlLk6GJQsqaUBKTNV-1" vertex="1">
          <mxGeometry x="180" y="-110" width="30" height="10" as="geometry" />
        </mxCell>
        <mxCell id="1XZv7HSyNnlQdb31LOB--121" value="&lt;font style=&quot;font-size: 12px;&quot;&gt;1.1&lt;/font&gt;" style="text;strokeColor=none;fillColor=none;html=1;fontSize=24;fontStyle=1;verticalAlign=middle;align=center;" parent="WIyWlLk6GJQsqaUBKTNV-1" vertex="1">
          <mxGeometry x="180" y="-170" width="30" height="10" as="geometry" />
        </mxCell>
      </root>
    </mxGraphModel>
  </diagram>
</mxfile>
